/* XPM */
static char *_b0d4a15d11d47f78b7696acda7974b5[] = {
/* columns rows colors chars-per-pixel */
"32 32 5 1 ",
"  c #FF7900",
". c #FF7A00",
"X c #FF9700",
"o c #FF9800",
"O c None",
/* pixels */
"OOOOOOOOOOOOOOXXXOOOOOOOOOOOOOOO",
"OOOOOOOOOOOOOOXoXOOOOOOOOOOOOOOO",
"OOOOOOOOOOOOOOXoXOOOOOOOOOOOOOOO",
"OOOOOOOOOOOOOOXXXOOOOOOOOOOOOOOO",
"OOOOOOOOOOOOOOOOOOOOOOOOOOOOOOOO",
"OOOOOOOOOOOXXXXOXXXXOOOOOOOOOOOO",
"OOOOOOOOOOXoooXOXoooXOOOOOOOOOOO",
"OOOOOOXXOXoXoooOXooXoXOXXOOOOOOO",
"OOOOOXoXOXooooXOXooooXOXoXOOOOOO",
"OOOOXooXOXooooXOXooooXOXooXOOOOO",
"OOOOXooXOXooooXOXooooXOXooXOOOOO",
"OOOOXooXOXooooXOXooooXOXooXOOOOO",
"OOOOXooXOXoooooOXooooXOXooXOOOOO",
"OOOOXoooXXooooXOXooooXOoXoXOOOOO",
"OOOOXoXoXOooooXOXooooOXoXoXOOOOO",
"OOOOOXooXOXooooOXoXoXOXooXOOOOOO",
"OOOOOXoooOXoXooOXoXoXOXooXOOOOOO",
"OOOOOOoooXOoooXOXoooOXooXOOOOOOO",
"OOOOOOoooXOXoooOXooXOXooXOOOOOOO",
"OOOOOOOoXXOXXXoOXXXXOoooOOOOOOOO",
"OOOOOOOOOOOOOOOOOOOOOOOOOOOOOOOO",
"OOOOOOOOOOOOOOOOOOOOOOOOOOOOOOOO",
"OOOOOOO ..  .. OO     ..  OOOOOO",
"OOOOOOOO O  . OOOOO  O..   OOOOO",
"OOOOOOOO O .. OOOOO  O .   OOOOO",
"OOOOOOOO O .. OOOOO  O .   OOOOO",
"OOOOOOOO O ...     .      OOOOOO",
"OOOOOOOO O .. O  O .  OOOOOOOOOO",
"OOOOOOOO O .. OO OO .  OOOOOOOOO",
"OOOOOOOO O .. OOO O ...  OOOOOOO",
"OOOOOOOO O .. OOO  O ... OOOOOOO",
"OOOOO            O          OOOO"
};
