/* XPM */
static char *_77985e916bf40c0ddcf5f99358f6ca0[] = {
/* columns rows colors chars-per-pixel */
"16 16 9 1 ",
"  c #FF7600",
". c #FF7700",
"X c #FF7900",
"o c #FF7A00",
"O c #FF9300",
"+ c #FF9600",
"@ c #FF9700",
"# c #FF9800",
"$ c None",
/* pixels */
"$$$$$$$$$$$$$$$$",
"$$$$$$$$$$$$$$$$",
"$$$$$$@@$$$$$$$$",
"$$$$$$$@$$$$$$$$",
"$$$$$@@@@@$$$$$$",
"$$$@@#@@#@@$$$$$",
"$$$@@@@@#@@@$$$$",
"$$$@@@@@@@@$$$$$",
"$$$##@#####$$$$$",
"$$$$@$@O$$$$$$$$",
"$$$$$  $$  $$$$$",
"$$$$$oo$$oo$$$$$",
"$$$$$ooo o$$$$$$",
"$$$$oo $ooo$$$$$",
"$$$$$$$$$$$$$$$$",
"$$$$$$$$$$$$$$$$"
};
