/* XPM */
static char *_9da98b75f504b72fd028025e6340dd1[] = {
/* columns rows colors chars-per-pixel */
"64 64 5 1 ",
"  c #FF7900",
". c #FF7A00",
"X c #FF9700",
"o c #FF9800",
"O c None",
/* pixels */
"OOOOOOOOOOOOOOOOOOOOOOOOOOOOOOOOOOOOOOOOOOOOOOOOOOOOOOOOOOOOOOOO",
"OOOOOOOOOOOOOOOOOOOOOOOOOOOOOOOOOOOOOOOOOOOOOOOOOOOOOOOOOOOOOOOO",
"OOOOOOOOOOOOOOOOOOOOOOOOOOOOOOOOOOOOOOOOOOOOOOOOOOOOOOOOOOOOOOOO",
"OOOOOOOOOOOOOOOOOOOOOOOOOOOOOOOOOOOOOOOOOOOOOOOOOOOOOOOOOOOOOOOO",
"OOOOOOOOOOOOOOOOOOOOOOOOOOOOOOOOOOOOOOOOOOOOOOOOOOOOOOOOOOOOOOOO",
"OOOOOOOOOOOOOOOOOOOOOOOOOOOOOOOOOOOOOOOOOOOOOOOOOOOOOOOOOOOOOOOO",
"OOOOOOOOOOOOOOOOOOOOOOOOOOOOOOOOOOOOOOOOOOOOOOOOOOOOOOOOOOOOOOOO",
"OOOOOOOOOOOOOOOOOOOOOOOOOOOOOOOOOOOOOOOOOOOOOOOOOOOOOOOOOOOOOOOO",
"OOOOOOOOOOOOOOOOOOOOOOOOOOOXXXXOOOOOOOOOOOOOOOOOOOOOOOOOOOOOOOOO",
"OOOOOOOOOOOOOOOOOOOOOOOOOOXoXooXOOOOOOOOOOOOOOOOOOOOOOOOOOOOOOOO",
"OOOOOOOOOOOOOOOOOOOOOOOOOOXooXoXOOOOOOOOOOOOOOOOOOOOOOOOOOOOOOOO",
"OOOOOOOOOOOOOOOOOOOOOOOOOOXoXXoXOOOOOOOOOOOOOOOOOOOOOOOOOOOOOOOO",
"OOOOOOOOOOOOOOOOOOOOOOOOOOXXooXOOOOOOOOOOOOOOOOOOOOOOOOOOOOOOOOO",
"OOOOOOOOOOOOOOOOOOOOOOOOOOOOXXOOOOOOOOOOOOOOOOOOOOOOOOOOOOOOOOOO",
"OOOOOOOOOOOOOOOOOOOOOOOOOOOOOOOOOOOOOOOOOOOOOOOOOOOOOOOOOOOOOOOO",
"OOOOOOOOOOOOOOOOOOOOOOXXXXXXOOXXXXXOOOOOOOOOOOOOOOOOOOOOOOOOOOOO",
"OOOOOOOOOOOOOOOOOOOOOXoooooXOXoooooXXOOOOOOOOOOOOOOOOOOOOOOOOOOO",
"OOOOOOOOOOOOOOOOOOOOXoXXXXoXOXoXXXXooXOOOOOOOOOOOOOOOOOOOOOOOOOO",
"OOOOOOOOOOOOOOOXXXOXoXoooooXOXoXoooXoXOXXXXOOOOOOOOOOOOOOOOOOOOO",
"OOOOOOOOOOOOOXXooXOXoXoooooXOXoXoooooXOOXooXOOOOOOOOOOOOOOOOOOOO",
"OOOOOOOOOOOOXooXoXOXoooooooXOXoXooooXoXOXoXoXOOOOOOOOOOOOOOOOOOO",
"OOOOOOOOOOOOXoXoXOOXoooooooXOXoXooooXoXOXoXXoXOOOOOOOOOOOOOOOOOO",
"OOOOOOOOOOOXoXooXOOXoooooooXOXoXooooXoXOXoXooXOOOOOOOOOOOOOOOOOO",
"OOOOOOOOOOOXoXooXOOXoooooooXOXoXooooooXOXoXooXOOOOOOOOOOOOOOOOOO",
"OOOOOOOOOOOXoXooXOOXoooooooXOXoXooooXoXOXoXoooXOOOOOOOOOOOOOOOOO",
"OOOOOOOOOOOXoXoooXOXoXoooooXOXoXooooXoXOXoXoooXOOOOOOOOOOOOOOOOO",
"OOOOOOOOOOOXoXoXoXOXoXoooooXOXoXooooXoXOXoXoooXOOOOOOOOOOOOOOOOO",
"OOOOOOOOOOOXoXoXoXOXoXoooooXOXoXoooooXOOXooooXOOOOOOOOOOOOOOOOOO",
"OOOOOOOOOOOXoXoXoXOXoXoooooXOXoXoooooXOOXooooXOOOOOOOOOOOOOOOOOO",
"OOOOOOOOOOOOXooooXOOXoooooooOXoXoooXoXOXoXoXoXOOOOOOOOOOOOOOOOOO",
"OOOOOOOOOOOOXoXooXXOXoXooooXOXoXoooXoXOXoXoXoXOOOOOOOOOOOOOOOOOO",
"OOOOOOOOOOOOXoXoXoXOXoXooooXOXoXooooXOOXooooXOOOOOOOOOOOOOOOOOOO",
"OOOOOOOOOOOOOXooooXOXXoooooXOXoXooXoXOXoooXoXOOOOOOOOOOOOOOOOOOO",
"OOOOOOOOOOOOOXoXooXOOXoooooXOXoXooXoXOXoXooXOOOOOOOOOOOOOOOOOOOO",
"OOOOOOOOOOOOOOoooXoXOXoXoooXOXoXoooXOOXooXoXOOOOOOOOOOOOOOOOOOOO",
"OOOOOOOOOOOOOOooXXoXOOXXXXoXOXoXXXoXOXoXXoXOOOOOOOOOOOOOOOOOOOOO",
"OOOOOOOOOOOOOOOoooooXOXoooooOooooooXOXoooooOOOOOOOOOOOOOOOOOOOOO",
"OOOOOOOOOOOOOOOOXXXXXOXXXXXXOooXXXXOOXXXooOOOOOOOOOOOOOOOOOOOOOO",
"OOOOOOOOOOOOOOOOOOOOOOOOOOOOOOOOOOOOOOOOOOOOOOOOOOOOOOOOOOOOOOOO",
"OOOOOOOOOOOOOOOOOOOOOOOOOOOOOOOOOOOOOOOOOOOOOOOOOOOOOOOOOOOOOOOO",
"OOOOOOOOOOOOOOOOOOOOOOOOOOOOOOOOOOOOOOOOOOOOOOOOOOOOOOOOOOOOOOOO",
"OOOOOOOOOOOO         .....                  OOOOOOOOOOOOOOOOOOOO",
"OOOOOOOOOOOOOOOO   O  .. . OOOOOO  . O ..... OOOOOOOOOOOOOOOOOOO",
"OOOOOOOOOOOOOOOOO  O  .... OOOOOOO . O .    . OOOOOOOOOOOOOOOOOO",
"OOOOOOOOOOOOOOOOO .O  .... OOOOOOOO  OO ... . OOOOOOOOOOOOOOOOOO",
"OOOOOOOOOOOOOOOOO .O  .....OOOOOOOO  OO ... . OOOOOOOOOOOOOOOOOO",
"OOOOOOOOOOOOOOOOO .O  .. . OOOOOOO . O .   .. OOOOOOOOOOOOOOOOOO",
"OOOOOOOOOOOOOOOOO .O  ....  OOOOO  . O ....  OOOOOOOOOOOOOOOOOOO",
"OOOOOOOOOOOOOOOOO .O  ... .      ..        OOOOOOOOOOOOOOOOOOOOO",
"OOOOOOOOOOOOOOOOO .O  .. . O  OO . .  OOOOOOOOOOOOOOOOOOOOOOOOOO",
"OOOOOOOOOOOOOOOOO .O  .... OO  OO . .  OOOOOOOOOOOOOOOOOOOOOOOOO",
"OOOOOOOOOOOOOOOOO .O  .....OOO  OO . ..   OOOOOOOOOOOOOOOOOOOOOO",
"OOOOOOOOOOOOOOOOO .O  .... OOO  OO  . ..   OOOOOOOOOOOOOOOOOOOOO",
"OOOOOOOOOOOOOOOOO .O  .. . OOOO  OO ....    OOOOOOOOOOOOOOOOOOOO",
"OOOOOOOOOOOOOOOOO .O  .. . OOOOO  OO . .. . OOOOOOOOOOOOOOOOOOOO",
"OOOOOOOOOOOO     .   .    .    OO    .     .    OOOOOOOOOOOOOOOO",
"OOOOOOOOOOOO    OOO  OOOOOOO   OOO   OOOOOOOO   OOOOOOOOOOOOOOOO",
"OOOOOOOOOOOOOOOOOOOOOOOOOOOOOOOOOOOOOOOOOOOOOOOOOOOOOOOOOOOOOOOO",
"OOOOOOOOOOOOOOOOOOOOOOOOOOOOOOOOOOOOOOOOOOOOOOOOOOOOOOOOOOOOOOOO",
"OOOOOOOOOOOOOOOOOOOOOOOOOOOOOOOOOOOOOOOOOOOOOOOOOOOOOOOOOOOOOOOO",
"OOOOOOOOOOOOOOOOOOOOOOOOOOOOOOOOOOOOOOOOOOOOOOOOOOOOOOOOOOOOOOOO",
"OOOOOOOOOOOOOOOOOOOOOOOOOOOOOOOOOOOOOOOOOOOOOOOOOOOOOOOOOOOOOOOO",
"OOOOOOOOOOOOOOOOOOOOOOOOOOOOOOOOOOOOOOOOOOOOOOOOOOOOOOOOOOOOOOOO",
"OOOOOOOOOOOOOOOOOOOOOOOOOOOOOOOOOOOOOOOOOOOOOOOOOOOOOOOOOOOOOOOO"
};
